<svg xmlns="http://www.w3.org/2000/svg" version="1.0" width="64.000000pt" height="64.000000pt" viewBox="0 0 64.000000 64.000000" preserveAspectRatio="xMidYMid meet">

<g transform="translate(0.000000,64.000000) scale(0.100000,-0.100000)" fill="#f0c455" stroke="none">
<path d="M360 606 c-7 -9 -18 -16 -24 -16 -7 0 -27 -13 -44 -28 -32 -29 -41 -55 -22 -67 6 -3 10 -18 10 -32 0 -15 10 -37 21 -50 18 -18 20 -25 9 -37 -12 -15 -20 -14 -58 12 -11 8 -11 13 -1 29 7 11 9 28 6 37 -8 20 -46 21 -53 1 -8 -21 17 -72 42 -85 18 -10 20 -18 16 -61 -4 -45 -2 -51 17 -56 12 -3 21 -13 21 -24 0 -10 9 -24 20 -31 32 -20 24 -38 -15 -38 -19 0 -35 -4 -35 -10 0 -6 65 -11 163 -12 l162 -3 3 -57 c4 -73 22 -76 22 -4 0 74 -14 86 -96 86 -68 0 -83 13 -44 38 11 7 20 21 20 31 0 10 9 21 20 24 16 4 20 14 20 44 0 21 -5 44 -10 49 -7 7 0 20 20 39 28 27 30 34 30 99 0 69 -1 71 -30 85 -42 18 -60 9 -60 -33 0 -40 -18 -56 -35 -33 -17 23 -28 21 -22 -3 6 -23 -8 -27 -17 -5 -3 8 -17 15 -31 15 -16 0 -25 6 -25 15 0 8 -4 15 -10 15 -5 0 -10 -7 -10 -15 0 -23 -17 -18 -23 7 -7 27 -1 38 23 38 10 0 20 7 24 15 8 22 47 19 53 -5 7 -25 23 -26 23 -2 1 16 1 16 14 0 16 -22 26 -23 26 -4 0 20 -20 33 -66 40 -31 6 -44 3 -54 -8z m170 -56 c0 -5 -4 -10 -10 -10 -5 0 -10 5 -10 10 0 6 5 10 10 10 6 0 10 -4 10 -10z m2 -153 c-19 -19 -35 -27 -43 -22 -9 6 -7 10 9 16 24 9 29 38 11 56 -17 17 -1 67 24 78 21 10 22 8 25 -44 3 -49 0 -58 -26 -84z m-232 123 c0 -5 -4 -10 -10 -10 -5 0 -10 5 -10 10 0 6 5 10 10 10 6 0 10 -4 10 -10z m68 -58 c11 -26 7 -72 -7 -72 -4 0 -19 13 -34 28 -25 26 -35 61 -22 74 13 13 52 -6 63 -30z m32 18 c0 -5 -4 -10 -10 -10 -5 0 -10 5 -10 10 0 6 5 10 10 10 6 0 10 -4 10 -10z m80 -19 c0 -17 -18 -21 -24 -6 -3 9 0 15 9 15 8 0 15 -4 15 -9z m-39 -18 c11 -13 11 -17 2 -20 -7 -3 -13 -11 -13 -19 0 -8 -9 -14 -20 -14 -23 0 -24 8 -10 44 11 30 22 33 41 9z m-201 -3 c0 -5 -4 -10 -10 -10 -5 0 -10 5 -10 10 0 6 5 10 10 10 6 0 10 -4 10 -10z m260 -20 c0 -5 -4 -10 -10 -10 -5 0 -10 5 -10 10 0 6 5 10 10 10 6 0 10 -4 10 -10z m-22 -82 c3 -26 22 -41 22 -18 0 6 5 10 10 10 6 0 10 -13 10 -30 0 -16 -4 -30 -10 -30 -5 0 -10 5 -10 10 0 6 -4 10 -9 10 -6 0 -11 -17 -13 -37 -3 -33 -7 -38 -30 -41 -26 -3 -41 -22 -18 -22 6 0 10 -7 10 -15 0 -11 -11 -15 -40 -15 -29 0 -40 4 -40 15 0 8 9 15 20 15 36 0 21 19 -17 22 l-38 3 -3 64 c-4 92 -4 92 80 89 71 -3 73 -4 76 -30z m-178 -38 c0 -16 -4 -30 -10 -30 -5 0 -10 14 -10 30 0 17 5 30 10 30 6 0 10 -13 10 -30z" fill="#f0c455"/>
<path d="M350 310 c0 -5 5 -10 10 -10 6 0 10 5 10 10 0 6 -4 10 -10 10 -5 0 -10 -4 -10 -10z" fill="#f0c455"/>
<path d="M430 310 c0 -5 5 -10 10 -10 6 0 10 5 10 10 0 6 -4 10 -10 10 -5 0 -10 -4 -10 -10z" fill="#f0c455"/>
<path d="M350 250 c0 -5 23 -10 50 -10 28 0 50 5 50 10 0 6 -22 10 -50 10 -27 0 -50 -4 -50 -10z" fill="#f0c455"/>
<path d="M372 558 c6 -17 36 -34 44 -25 4 4 -1 14 -12 22 -23 18 -37 19 -32 3z" fill="#f0c455"/>
<path d="M450 540 c0 -5 5 -10 10 -10 6 0 10 5 10 10 0 6 -4 10 -10 10 -5 0 -10 -4 -10 -10z" fill="#f0c455"/>
<path d="M44 515 c-8 -19 18 -75 46 -100 16 -15 20 -30 19 -84 0 -75 -17 -134 -18 -67 -1 22 -8 48 -18 58 -14 15 -14 22 -3 42 16 31 7 56 -20 56 -26 0 -37 -27 -22 -51 7 -10 12 -25 12 -33 0 -7 7 -19 15 -26 16 -14 21 -80 5 -80 -5 0 -17 -14 -25 -31 -13 -24 -14 -34 -4 -45 9 -11 9 -17 0 -28 -19 -23 13 -79 40 -71 15 5 22 2 26 -14 7 -27 23 -27 23 -1 0 21 -34 45 -50 35 -11 -7 -12 -4 -12 65 0 69 0 70 16 64 8 -3 24 4 35 15 26 26 36 26 62 0 11 -11 27 -18 35 -15 16 6 16 5 16 -64 0 -69 0 -70 -16 -64 -13 5 -66 -35 -66 -50 0 -16 38 -4 43 15 4 16 11 19 26 14 27 -8 59 48 40 71 -9 11 -9 17 0 28 10 11 9 21 -4 45 -8 17 -20 31 -25 31 -9 0 -2 23 23 77 19 42 -15 72 -43 38 -10 -12 -10 -19 -2 -27 16 -16 15 -49 -2 -71 -13 -16 -14 -16 -20 5 -10 40 -6 187 6 207 15 24 4 51 -22 51 -26 0 -37 -27 -22 -51 15 -23 16 -199 2 -199 -6 0 -10 31 -10 72 0 64 -3 75 -26 99 -22 23 -24 30 -13 47 7 10 9 27 6 36 -8 20 -46 21 -53 1z m36 -15 c0 -5 -4 -10 -10 -10 -5 0 -10 5 -10 10 0 6 5 10 10 10 6 0 10 -4 10 -10z m90 -20 c0 -5 -4 -10 -10 -10 -5 0 -10 5 -10 10 0 6 5 10 10 10 6 0 10 -4 10 -10z m-110 -90 c0 -5 -4 -10 -10 -10 -5 0 -10 5 -10 10 0 6 5 10 10 10 6 0 10 -4 10 -10z m170 -60 c0 -5 -4 -10 -10 -10 -5 0 -10 5 -10 10 0 6 5 10 10 10 6 0 10 -4 10 -10z" fill="#f0c455"/>
<path d="M106 174 c-9 -8 -16 -23 -16 -33 0 -22 30 -51 53 -51 21 0 47 27 47 51 0 27 -18 24 -22 -3 -2 -17 -10 -23 -28 -23 -20 0 -25 5 -25 25 0 18 6 26 23 28 12 2 22 8 22 13 0 15 -37 10 -54 -7z" fill="#f0c455"/>
<path d="M280 60 l0 -40 120 0 120 0 0 40 0 40 -65 0 c-37 0 -65 -4 -65 -10 0 -5 8 -10 18 -10 11 0 27 -9 37 -20 18 -20 17 -20 -22 -20 -27 0 -46 6 -58 20 -10 11 -13 20 -7 20 7 0 12 5 12 10 0 6 -20 10 -45 10 l-45 0 0 -40z m55 0 c18 -20 17 -20 -8 -20 -20 0 -27 5 -27 20 0 11 4 20 8 20 5 0 17 -9 27 -20z m165 0 c0 -25 -2 -25 -25 0 -18 19 -17 20 3 20 15 0 22 -6 22 -20z" fill="#f0c455"/>
</g>
</svg>